<svg id="visual" viewBox="0 0 900 600" width="900" height="600" xmlns="http://www.w3.org/2000/svg" xmlns:xlink="http://www.w3.org/1999/xlink" version="1.1"><rect x="0" y="0" width="900" height="600" fill="#001220"></rect><path d="M0 393L21.5 386.7C43 380.3 86 367.7 128.8 360.7C171.7 353.7 214.3 352.3 257.2 352.5C300 352.7 343 354.3 385.8 362.8C428.7 371.3 471.3 386.7 514.2 398C557 409.3 600 416.7 642.8 414.8C685.7 413 728.3 402 771.2 391.2C814 380.3 857 369.7 878.5 364.3L900 359L900 601L878.5 601C857 601 814 601 771.2 601C728.3 601 685.7 601 642.8 601C600 601 557 601 514.2 601C471.3 601 428.7 601 385.8 601C343 601 300 601 257.2 601C214.3 601 171.7 601 128.8 601C86 601 43 601 21.5 601L0 601Z" fill="#fa7268"></path><path d="M0 453L21.5 453.3C43 453.7 86 454.3 128.8 446C171.7 437.7 214.3 420.3 257.2 412.5C300 404.7 343 406.3 385.8 406C428.7 405.7 471.3 403.3 514.2 411.2C557 419 600 437 642.8 442.8C685.7 448.7 728.3 442.3 771.2 434.7C814 427 857 418 878.5 413.5L900 409L900 601L878.5 601C857 601 814 601 771.2 601C728.3 601 685.7 601 642.8 601C600 601 557 601 514.2 601C471.3 601 428.7 601 385.8 601C343 601 300 601 257.2 601C214.3 601 171.7 601 128.8 601C86 601 43 601 21.5 601L0 601Z" fill="#ef5f67"></path><path d="M0 481L21.5 481.7C43 482.3 86 483.7 128.8 488.7C171.7 493.7 214.3 502.3 257.2 497.3C300 492.3 343 473.7 385.8 469.2C428.7 464.7 471.3 474.3 514.2 472.7C557 471 600 458 642.8 454.2C685.7 450.3 728.3 455.7 771.2 460.7C814 465.7 857 470.3 878.5 472.7L900 475L900 601L878.5 601C857 601 814 601 771.2 601C728.3 601 685.7 601 642.8 601C600 601 557 601 514.2 601C471.3 601 428.7 601 385.8 601C343 601 300 601 257.2 601C214.3 601 171.7 601 128.8 601C86 601 43 601 21.5 601L0 601Z" fill="#e34c67"></path><path d="M0 521L21.5 515C43 509 86 497 128.8 492.8C171.7 488.7 214.3 492.3 257.2 498.5C300 504.7 343 513.3 385.8 517.3C428.7 521.3 471.3 520.7 514.2 521C557 521.3 600 522.7 642.8 517.7C685.7 512.7 728.3 501.3 771.2 498.8C814 496.3 857 502.7 878.5 505.8L900 509L900 601L878.5 601C857 601 814 601 771.2 601C728.3 601 685.7 601 642.8 601C600 601 557 601 514.2 601C471.3 601 428.7 601 385.8 601C343 601 300 601 257.2 601C214.3 601 171.7 601 128.8 601C86 601 43 601 21.5 601L0 601Z" fill="#d53867"></path><path d="M0 566L21.5 560.3C43 554.7 86 543.3 128.8 542.8C171.7 542.3 214.3 552.7 257.2 554C300 555.3 343 547.7 385.8 545.7C428.7 543.7 471.3 547.3 514.2 547C557 546.7 600 542.3 642.8 542C685.7 541.7 728.3 545.3 771.2 543.7C814 542 857 535 878.5 531.5L900 528L900 601L878.5 601C857 601 814 601 771.2 601C728.3 601 685.7 601 642.8 601C600 601 557 601 514.2 601C471.3 601 428.7 601 385.8 601C343 601 300 601 257.2 601C214.3 601 171.7 601 128.8 601C86 601 43 601 21.5 601L0 601Z" fill="#c62368"></path></svg>